<?xml version="1.0" encoding="utf-8"?>
<!-- Generator: Adobe Illustrator 16.0.0, SVG Export Plug-In . SVG Version: 6.00 Build 0)  -->
<!DOCTYPE svg PUBLIC "-//W3C//DTD SVG 1.1//EN" "http://www.w3.org/Graphics/SVG/1.1/DTD/svg11.dtd">
<svg version="1.1"
	 id="svg2" xmlns:cc="http://creativecommons.org/ns#" xmlns:dc="http://purl.org/dc/elements/1.1/" xmlns:inkscape="http://www.inkscape.org/namespaces/inkscape" xmlns:rdf="http://www.w3.org/1999/02/22-rdf-syntax-ns#" xmlns:sodipodi="http://sodipodi.sourceforge.net/DTD/sodipodi-0.dtd" xmlns:svg="http://www.w3.org/2000/svg" sodipodi:docname="SCB.svg" inkscape:version="0.48.4 r9939"
	 xmlns="http://www.w3.org/2000/svg" xmlns:xlink="http://www.w3.org/1999/xlink" x="0px" y="0px" width="800px" height="800px"
	 viewBox="-149.59 -86.771 800 800" enable-background="new -149.59 -86.771 800 800" xml:space="preserve">
<sodipodi:namedview  showgrid="false" pagecolor="#ffffff" inkscape:zoom="0.98994949" inkscape:cy="234.33185" inkscape:cx="65.656946" id="base" fit-margin-top="0" fit-margin-left="0" borderopacity="1.0" bordercolor="#666666" inkscape:window-y="-8" inkscape:window-x="-8" inkscape:pageopacity="0.0" inkscape:document-units="px" inkscape:window-width="1366" fit-margin-right="0" inkscape:window-maximized="1" fit-margin-bottom="0" inkscape:window-height="706" inkscape:current-layer="layer1" inkscape:pageshadow="2">
	</sodipodi:namedview>
<g>
	<rect x="-149.59" y="-86.771" fill="#008CFF" width="800" height="800"/>
	<g>
		<path id="path26" inkscape:connector-curvature="0" fill="#FFFFFF" d="M109.893,601.065c0,5.148,0.631,5.461,5.693,5.777v1.824
			H92.258v-1.906c5.221-0.313,5.852-0.633,5.852-5.766v-15.664c0-5.141-0.631-5.453-5.537-5.773v-1.82h22.938
			c5.77,0,9.568,0.398,12.496,1.582c2.922,1.191,5.137,3.324,5.137,6.098c0,4.188-4.029,6.641-9.492,7.98
			c1.033,1.348,3.799,4.586,5.932,6.801c2.535,2.535,4.117,4.109,5.299,5.063c1.346,1.031,2.535,1.582,4.35,1.977l-0.156,1.664
			l-3.158-0.078c-10.525-0.156-12.896-1.586-15.9-4.352c-2.215-2.059-4.275-4.984-6.088-7.594c-0.633-1.027-1.74-1.742-3.084-1.742
			h-0.951V601.065 M109.893,593.159h1.031c2.371,0,4.111-0.156,5.531-0.789c3.01-1.5,4.117-3.715,4.117-6.094
			c0-4.586-4.512-6.086-7.359-6.086c-3.084,0-3.32,0.164-3.32,2.059V593.159"/>
		<path id="path28" inkscape:connector-curvature="0" fill="#FFFFFF" d="M57.621,567.456c12.891,0,23.563,1.508,30.604,5.617
			c4.904,2.852,9.016,7.516,9.016,12.969c0,15.813-19.773,22.539-44.049,22.539H26.141v-2.453c7.672-0.391,8.467-0.785,8.467-7.668
			v-20.957c0-6.797-0.869-7.273-7.67-7.672v-2.449L57.621,567.456 M52.477,598.616c0,5.691,2.297,6.727,7.359,6.727
			c9.016,0,18.107-6.012,18.107-17.246c0-13.676-11.469-17.391-20.322-17.391c-2.379,0-3.799,0.156-4.512,0.473
			c-0.551,0.156-0.633,1.578-0.633,3.16V598.616"/>
		<path id="path32" inkscape:connector-curvature="0" fill="#FFFFFF" d="M189.375,606.682l2.207-0.156
			c2.691-0.238,2.855-0.711,1.902-2.453l-2.689-4.828h-12.02l-2.217,4.586c-0.949,2.063-0.949,2.539,2.453,2.773l2.133,0.156v1.906
			h-17.156v-1.824c3.793-0.316,4.826-0.473,7.271-4.512l14.711-24.43l5.061-0.633l4.988,8.934c3.16,5.621,6.326,11.23,9.172,15.973
			c2.371,4.113,3.717,4.352,7.277,4.668v1.824h-23.176L189.375,606.682 M179.965,596.401h9.41l-4.668-9.094h-0.238L179.965,596.401"
			/>
		<path id="path34" inkscape:connector-curvature="0" fill="#FFFFFF" d="M263.785,577.815v1.82c-5.609,0.313-5.93,0.555-5.691,5.539
			l0.715,15.891c0.234,5.223,0.391,5.383,5.695,5.777v1.824h-23.098v-1.824c5.537-0.316,5.777-0.473,5.693-5.777l-0.236-16.684
			h-0.314l-14.232,23.809h-3.955l-13.527-22.148h-0.158l-0.475,10.516c-0.238,4.117-0.156,6.332,0.164,7.832
			c0.311,1.738,1.895,2.215,6.719,2.453v1.824h-18.189v-1.824c3.561-0.16,4.98-0.629,5.375-2.453c0.4-1.5,0.795-3.953,1.189-8.301
			l0.787-9.574c0.477-6.004-0.074-6.48-5.924-6.801v-1.898h17.318l12.891,18.82l11.305-18.82H263.785"/>
		<path id="path36" inkscape:connector-curvature="0" fill="#FFFFFF" d="M282.535,569.917l-3.406,0.23
			c-3.875,0.316-4.191,0.793-2.93,3.402l9.969,21.273h0.238l13.762-27.047h7.355l15.973,27.047h0.242
			c3.633-7.43,7.508-16.375,9.008-20.09c1.344-3.637,1.031-4.27-3.48-4.586l-3.953-0.23v-2.461h25.074v2.461
			c-5.852,0.469-6.805,0.703-10.367,6.324c-0.547,0.789-8.613,15.418-16.996,32.895h-8.23l-15.414-25.699h-0.238l-14.078,25.777
			h-8.066l-17.711-33.289c-2.852-5.219-4.75-5.539-9.576-5.938v-2.453h32.744v2.383"/>
		<path id="path38" inkscape:connector-curvature="0" fill="#FFFFFF" d="M381.461,592.846c0,10.117-10.754,16.523-24.91,16.523
			c-14.863,0-24.516-6.957-24.516-15.652c0-7.676,7.984-16.605,25.625-16.605C371.027,577.112,381.461,583.51,381.461,592.846
			 M345.641,592.049c0,8.625,4.98,14.867,12.258,14.867c6.324,0,9.805-3.953,9.805-12.492c0-9.57-5.301-14.789-11.625-14.789
			C350.387,579.557,345.641,583.749,345.641,592.049"/>
		<path id="path40" inkscape:connector-curvature="0" fill="#FFFFFF" d="M393.25,601.065c0,5.148,0.633,5.461,5.695,5.777v1.824
			h-23.332v-1.824c5.219-0.316,5.848-0.629,5.848-5.777v-15.648c0-5.148-0.629-5.469-5.527-5.781v-1.82h23.012
			c5.77,0,9.566,0.402,12.496,1.586c2.922,1.188,5.133,3.32,5.133,6.086c0,4.195-4.027,6.648-9.492,7.992
			c1.035,1.344,3.801,4.586,5.941,6.801c2.527,2.527,4.113,4.109,5.293,5.063c1.344,1.027,2.531,1.574,4.348,1.977l-0.156,1.66
			l-3.168-0.078c-10.434-0.164-12.883-1.582-15.809-4.348c-2.215-2.059-4.273-4.988-6.09-7.676
			c-0.711-1.027-1.664-1.742-3.082-1.742h-0.953L393.25,601.065 M393.25,593.159h1.027c2.371,0,4.109-0.156,5.539-0.789
			c3-1.5,4.109-3.715,4.109-6.094c0-4.586-4.508-6.086-7.352-6.086c-3.094,0-3.324,0.164-3.324,2.059V593.159"/>
		<path id="path42" inkscape:connector-curvature="0" fill="#FFFFFF" d="M436.66,601.065c0,5.148,0.559,5.461,5.859,5.777v1.824
			h-23.016v-1.824c4.824-0.316,5.375-0.629,5.375-5.777v-15.648c0-5.148-0.551-5.469-5.766-5.781v-1.82h23.012v1.898
			c-4.906,0.32-5.465,0.641-5.465,5.773v7.438c5.383-3.875,9.887-7.438,14.164-10.992c1.023-0.875,1.813-1.82-0.164-1.977
			l-2.766-0.16v-1.895h19.77v1.895c-4.191,0.316-6.488,0.473-10.363,2.926c-3.953,2.453-7.668,4.906-10.754,7.195
			c4.594,4.516,9.418,8.859,14.078,12.891c3.957,3.406,5.301,3.879,8.301,4.109v1.82h-17c-2.77-3-9.801-10.039-15.184-15.18h-0.156
			L436.66,601.065"/>
		<path id="path44" inkscape:connector-curvature="0" fill="#FFFFFF" d="M469.488,598.932c1.578,2.766,5.93,7.984,13.125,7.984
			c3.789,0,6.801-1.574,6.801-4.66c0-2.77-2.848-4.348-7.355-5.699l-1.102-0.313c-6.016-1.82-12.898-4.266-12.898-9.328
			c0-5.383,6.094-9.73,17.641-9.73c2.297,0,4.664,0.156,6.797,0.551c1.742,0.32,2.852,0.48,3.793,0.711
			c0.32,1.82,0.793,4.195,1.59,7.441l-3.246,0.313c-1.582-3.168-4.191-6.488-10.043-6.488c-3.797,0-6.406,1.902-6.406,4.117
			c0,2.371,2.852,3.797,7.594,5.137l1.578,0.473c6.801,1.98,12.578,4.434,12.578,9.969c0,5.852-7.281,10.117-18.75,10.117
			c-2.922,0-5.93-0.391-7.98-0.789c-2.215-0.473-3.801-0.867-4.668-1.105c-0.633-2.215-1.586-4.742-2.453-7.91L469.488,598.932"/>
		<path id="path3069_1_" inkscape:connector-curvature="0" fill="#FFFFFF" d="M142.078,600.995c0,1.418-0.076,2.371-0.156,3.156
			c-0.082,0.715-0.395,1.266-0.871,1.586c-0.393,0.391-1.025,0.551-1.738,0.711c-0.713,0.156-1.896,0.234-3.48,0.395v1.824h37.486
			c0.236-0.402,0.395-0.871,0.631-1.508c0.24-0.633,0.477-1.422,0.789-2.293c0.32-0.871,0.557-1.738,0.795-2.535
			c0.238-0.789,0.313-1.418,0.471-2.051l-3.242-0.402c-1.107,2.379-2.371,4.039-3.553,4.906c-0.795,0.477-1.748,0.953-3.168,1.109
			c-1.346,0.234-2.928,0.32-4.666,0.32c-2.527,0-4.275-0.164-5.219-0.477c-0.633-0.238-1.107-0.559-1.189-1.184
			c-0.156-0.559-0.238-1.508-0.238-2.926v-7.754h3.641c1.742,0,3.006,0.082,3.799,0.16c0.871,0.078,1.422,0.313,1.896,0.555
			c0.475,0.313,0.789,0.711,1.025,1.262c0.238,0.551,0.395,1.426,0.633,2.527h3.248v-11.227h-3.404
			c-0.238,1.027-0.395,1.742-0.633,2.289c-0.238,0.477-0.557,0.797-1.025,1.109c-0.477,0.238-1.107,0.395-1.902,0.477
			c-0.869,0.082-2.135,0.156-3.793,0.156h-3.641v-9.172c0-0.789,0.156-1.344,0.395-1.422c0.318-0.164,1.107-0.234,2.533-0.234h1.184
			c3.879,0,6.406,0.391,7.514,1.105c0.633,0.395,1.107,0.941,1.502,1.574c0.4,0.715,0.871,1.586,1.189,2.773l3.24-0.156
			l-0.395-3.797c-0.318-2.375-0.475-3.797-0.475-4.039h-34.795v1.82c1.346,0.078,2.371,0.16,3.084,0.313
			c0.715,0.164,1.109,0.406,1.502,0.719c0.395,0.391,0.633,0.867,0.789,1.582c0.162,0.715,0.162,1.738,0.162,3.082L142.078,600.995z
			"/>
	</g>
	<path fill="#008CFF" d="M25.605,251.713v16.762c-0.096-2.785-0.143-5.578-0.143-8.385C25.463,257.292,25.51,254.499,25.605,251.713
		z"/>
	<path fill="#FFFFFF" d="M499.23,260.09c0,134.643-105.969,243.795-236.727,243.877H25.605V16.221h236.898
		C393.262,16.303,499.23,125.458,499.23,260.09z"/>
	<path id="path14_1_" inkscape:connector-curvature="0" fill="#008CFF" d="M229.834,401.417c0,0-2.205,3.105-4.129,5.172
		c-1.916,2.066-2.508,3.398-1.176,3.98c1.324,0.891,2.506,1.625,5.605,3.691c-0.885,4.57-4.281,11.805-6.496,16.082
		c-2.215,4.273-4.863,8.703-7.08,10.77c-2.209,2.063-7.379,6.344-10.627,9.445c-3.24,3.102-6.93,5.313-9.145,5.754
		c-3.982,0.59-5.307-2.215-5.756-1.473c-2.506,3.387-1.176,6.633,3.398,7.227c1.617,0.293,2.506,1.766,5.313,2.801
		c2.799,1.184,7.08,0.301,9.438-0.887c2.508-1.18,7.678-4.281,11.51-6.195c3.84-1.914,7.82-1.773,12.252-2.063
		c3.689-0.297,3.98-6.348,2.648-9.445c-1.914-4.57-0.441-7.672,1.773-13.133c2.357-5.309,8.412-11.07,8.412-11.07
		s1.623-0.883,4.281,1.039c2.506,1.766,3.096-1.039,6.486-5.02c2.656-3.09,5.609-6.488,3.992-7.965
		c-1.922-1.773-1.484-2.516-1.484-2.516s1.914-2.508,3.992-4.125L229.834,401.417"/>
	<path id="path16_1_" inkscape:connector-curvature="0" fill="#008CFF" d="M336.668,328.241c0,0,25.516-18.299,35.406-70.086
		c6.055-31.283,3.395-61.531-10.922-91.631c-21.09-44.268-71.852-75.4-120.541-80.414c81.154-17.855,154.189,28.184,182.08,86.02
		c27.145,56.217,24.789,115.092-17.125,169.979c-8.703,11.363-58.574,66.254-146.953,63.449c-6.199,1.031-21.691-1.918-26.414-3.691
		c0,0-7.963-2.949-17.707-6.938c-9.885-4.129-33.049-16.375-46.473-28.324c11.359,6.484,31.574,13.574,50.756,15.34
		C230.869,380.178,294.465,369.401,336.668,328.241"/>
	<path id="path18_1_" inkscape:connector-curvature="0" fill="#008CFF" d="M304.352,280.284c0.734-1.766-4.723,0.592-5.613,1.033
		c-3.098,1.475-5.305-0.883-4.715-2.363c0.59-1.619,0.293-2.801-1.035-2.65c-1.031,0.143-1.18-1.184-0.738-2.066
		c-1.035,0-1.621-0.889-1.766-1.33c1.621-0.586,0.145-2.066-0.441-2.359c-0.602-0.299-1.922-0.441-2.066-1.475
		c-0.152-1.033,1.035-2.508,2.207-3.246c1.184-0.742,1.625-2.066,0.301-4.281c-1.043-1.916-1.625-5.164-0.59-6.346
		c-2.367,0.299-3.398,2.807-3.398,2.807c-1.477-2.658-0.594-5.314-0.145-6.641c-0.738,0.734-1.922,2.801-1.922,2.801
		c1.621-14.018,18.598-19.771,23.02-20.805c8.414-1.768,21.539-2.066,19.48,4.131c0,0,2.652-5.164-2.215-6.34
		c2.797-0.148,5.016,2.801,3.98,4.715c1.324-0.883,3.98-1.473,4.723-0.291c-1.324,0.148-4.133,1.475-4.281,2.656
		c2.508-0.441,5.172,0.883,6.938,9.145c0.883,3.689,2.5,15.791-3.098,19.773c0,0,0.293-0.734,0.293-1.625
		c0,0-0.742,2.807-4.875,2.807c0,0-0.289,1.324-0.148,2.066c0,0,5.023-1.918,6.938-1.184c0,0-2.359,4.281-3.242,6.055
		c3.242,0,13.129,6.197,13.719,20.355c1.477,2.365,3.25,16.232,1.477,22.58c-14.016,42.934-115.678,67.578-132.943,62.266
		c0,0-4.863-3.539-0.883-5.758c1.324-0.742,0.293,0.301,3.391,1.184c1.924,0.441,3.396,0,5.756-1.332
		c2.508-1.477,7.82-2.648,11.51-5.164c3.689-2.508,6.488-3.098,10.326-10.035c0.891-1.465,1.184-3.535,1.625-6.047
		c0-0.441-0.293-0.293-3.832-1.473c-2.072-0.734-3.689,0.297-3.689-3.398c0-3.531,1.475-8.996,1.768-10.469
		c0.291-1.336,1.773-1.484,5.455-1.336c1.623-3.238,2.955-8.992,3.988-12.242c0,0-1.033,0.297-3.248,0.297s-3.246,1.477-6.938,2.805
		c-3.832,1.172-5.746,0.883-6.488-1.477c-1.039-3.102-1.039-4.578-1.916-6.789c-0.74-1.477-3.246-1.477-2.807-3.098
		c0.441-1.625,1.182-2.365,2.365-2.807c1.176-1.174,4.279-0.883,6.938-3.391c2.65-2.365,4.424,0.15,5.307,1.916
		c0.74,1.475,1.031,1.625,2.799,3.832c0.891,1.039,3.988,0.297,6.053,0l1.77-6.93c-1.176-0.299-6.49-1.184-12.246-3.98
		c-5.754-2.807-10.035-5.613-12.25-5.166c-8.113,0.885-6.047-0.59-9.879-6.346c-2.365-3.396-1.773-3.539-4.58-4.871
		c-3.533-1.475-1.176-5.164,0.299-4.865c1.475,0.293,3.982-1.182,6.197-1.623c-0.74-3.398,0.299-5.463,3.539-5.164
		c-0.74,2.066,2.508,6.787,6.197,7.963c3.84,1.182,5.313,7.229,5.313,8.412c3.541,3.391,19.922,3.098,23.461,3.098
		c1.77-2.799,2.508-3.391,9.297-3.391c4.273,0,7.965,1.033,11.211,4.717c3.098,0.889,0.441-1.768,5.754-2.359
		c5.313-0.584,7.82-2.807,10.035-3.391c2.215-0.59,2.215-1.922,3.832-3.246c1.035-0.734,1.773-2.658,3.102-3.248
		c1.328-0.592,1.18-4.723,1.773-5.605 M259.941,357.6c0,0-1.18,5.605,0,10.324c3.242-0.875,5.75-3.391,8.262-4.273
		c2.508-0.891,9.145-2.656,13.574-4.719c0,0,0-0.891-1.621-3.25c-1.184-1.773-3.84-10.176-6.348-19.328c0,0-1.031-6.348-1.914-6.047
		c-0.594,0.289-1.039,7.82-1.184,11.211c-0.293,3.988-0.293,2.656-0.293,2.656s2.508,0.297,2.211,1.773
		c-0.445,1.625-2.359,11.211-2.953,12.836c-0.438,1.32-0.738,0.738-3.094,0.289C263.926,358.483,259.941,357.6,259.941,357.6
		L259.941,357.6z M303.613,332.514c1.328-2.066,0.887-2.801,1.621-6.934c0.301-5.75-1.766-10.324-1.766-10.324l-9.598,2.656
		C296.824,321.745,300.07,329.276,303.613,332.514"/>
	<path id="path20_1_" inkscape:connector-curvature="0" fill="#008CFF" d="M56.908,174.786
		c57.543,6.787,180.896,111.104,182.08,142.236l-4.43,0.738C220.982,270.84,90.695,179.657,56.908,179.95V174.786"/>
	<path id="path22_1_" inkscape:connector-curvature="0" fill="#008CFF" d="M237.363,326.026c0.293,0.883,2.066,5.016,2.215,5.754
		c0.143,0.734,4.865,1.473,3.982-1.773c-0.883-3.238-2.215-5.895-2.215-5.895L237.363,326.026"/>
	<path id="path24_1_" inkscape:connector-curvature="0" fill="#008CFF" d="M59.564,503.967h5.314V177.883h-5.314V503.967z"/>
</g>
</svg>
